<svg width="26" height="24" viewBox="0 0 26 24" fill="none" xmlns="http://www.w3.org/2000/svg">
<path d="M24.25 12.275C24.25 5.4125 18.925 0.75 13 0.75C7.1375 0.75 1.75 5.3125 1.75 12.35C1 12.775 0.5 13.575 0.5 14.5V17C0.5 18.375 1.625 19.5 3 19.5H4.25V11.875C4.25 7.0375 8.1625 3.125 13 3.125C17.8375 3.125 21.75 7.0375 21.75 11.875V20.75H11.75V23.25H21.75C23.125 23.25 24.25 22.125 24.25 20.75V19.225C24.9875 18.8375 25.5 18.075 25.5 17.175V14.3C25.5 13.425 24.9875 12.6625 24.25 12.275V12.275Z" fill="#F7FAFC"/>
</svg>
