<svg width="20" height="20" viewBox="0 0 20 20" fill="none" xmlns="http://www.w3.org/2000/svg">
<path d="M2.28417 6.31354H2.55785C3.61152 6.31354 4.47362 7.17563 4.47362 8.2293V17.8081C4.47362 18.8618 3.61152 19.7239 2.55785 19.7239H2.28417C1.2305 19.7239 0.368408 18.8618 0.368408 17.8081V8.2293C0.368408 7.17563 1.2305 6.31354 2.28417 6.31354ZM9.94723 0.566246C11.0009 0.566246 11.863 1.42834 11.863 2.48201V17.8081C11.863 18.8618 11.0009 19.7239 9.94723 19.7239C8.89356 19.7239 8.03146 18.8618 8.03146 17.8081V2.48201C8.03146 1.42834 8.89356 0.566246 9.94723 0.566246ZM17.6103 11.5135C18.664 11.5135 19.526 12.3756 19.526 13.4292V17.8081C19.526 18.8618 18.664 19.7239 17.6103 19.7239C16.5566 19.7239 15.6945 18.8618 15.6945 17.8081V13.4292C15.6945 12.3756 16.5566 11.5135 17.6103 11.5135Z" fill="#1C4532"/>
</svg>
