<?xml version="1.0" encoding="utf-8"?>
<!-- Generator: Adobe Illustrator 22.1.0, SVG Export Plug-In . SVG Version: 6.00 Build 0)  -->
<svg version="1.1" id="Layer_1" xmlns="http://www.w3.org/2000/svg" xmlns:xlink="http://www.w3.org/1999/xlink" x="0px" y="0px"
	 viewBox="0 0 306 94" style="enable-background:new 0 0 306 94;" xml:space="preserve">
<style type="text/css">
	.st0{fill:#231F20;}
	.st1{fill:#387FD5;}
</style>
<g>
	<path class="st0" d="M107.7,3.3c0-0.8-0.3-1.4-0.8-1.9c-0.6-0.5-1.3-0.8-2.2-0.8c-5.1,0-9.1,1.6-11.9,4.9
		c-2.8,3.3-4.2,7.7-4.2,13.2v7.2h-4.9c-0.8,0-1.5,0.2-2,0.7c-0.5,0.5-0.7,1.1-0.7,1.9c0,0.7,0.2,1.3,0.7,1.8c0.5,0.5,1.1,0.7,2,0.7
		h4.9v28.6h0l0,15.9c0,3.7-0.9,6.8-2.6,9c-1.7,2.3-4.3,3.4-7.7,3.4c-0.9,0-1.6,0.3-2.2,0.8c-0.6,0.5-0.8,1.2-0.8,1.9
		c0,0.8,0.3,1.4,0.8,1.9c0.6,0.5,1.3,0.8,2.2,0.8c5.1,0,9.1-1.6,11.9-4.9c2.8-3.3,4.2-7.7,4.2-13.2l0-16V31.1h9.2
		c0.8,0,1.5-0.2,2-0.7c0.5-0.5,0.7-1.1,0.7-1.8c0-0.8-0.2-1.4-0.7-1.9c-0.5-0.5-1.1-0.7-2-0.7h-9.2v-7.5c0-3.7,0.9-6.8,2.6-9
		c1.7-2.3,4.3-3.4,7.7-3.4c0.9,0,1.6-0.3,2.2-0.8C107.5,4.7,107.7,4.1,107.7,3.3"/>
	<path class="st0" d="M16.9,26c-4.3,0-7.8,1-10.7,3c-2.8,2-4.3,4.9-4.3,8.5c0,2.8,1.2,5.2,3.7,7.2c2.4,2,6.1,3.4,11.1,4.2
		c3.8,0.6,6.6,1.5,8.4,2.7c1.8,1.2,2.6,2.7,2.6,4.5c-0.1,2-1,3.5-2.7,4.8c-1.8,1.2-4.4,1.8-7.9,1.8c-2.4,0-4.6-0.4-6.6-1.1
		c-2-0.8-3.6-1.8-4.8-3.2c-0.6-0.7-1.3-1.1-2.2-1.1c-0.7,0-1.3,0.2-1.9,0.7c-0.8,0.7-1.2,1.4-1.2,2.3c0,0.6,0.3,1.1,0.8,1.7
		c1.8,1.9,4.1,3.4,6.9,4.5c2.9,1.1,5.9,1.6,9,1.6c3.1,0,5.9-0.5,8.4-1.5c2.5-1,4.4-2.4,5.8-4.2c1.4-1.8,2.1-3.9,2.1-6.2
		c0-3-1.2-5.5-3.5-7.6c-2.3-2-6.2-3.5-11.6-4.4c-4-0.7-6.7-1.5-8.3-2.6c-1.6-1.1-2.3-2.5-2.3-4.3c0-1.7,0.8-3.1,2.5-4.3
		c1.7-1.1,3.9-1.7,6.6-1.7c4.3,0,7.6,1.4,10.1,4.2c0.7,0.8,1.6,1.1,2.6,1.1c0.6,0,1.1-0.1,1.4-0.4c0.8-0.5,1.2-1.2,1.2-2
		c0-0.5-0.2-1.1-0.6-1.7c-1.5-2-3.5-3.6-6-4.7C23.1,26.6,20.2,26,16.9,26"/>
	<path class="st0" d="M58.7,26c-4,0-7.6,0.9-10.8,2.7c-3.2,1.8-5.7,4.3-7.5,7.6c-1.8,3.2-2.7,6.8-2.7,10.8c0,4,0.9,7.6,2.7,10.8
		c1.8,3.2,4.3,5.7,7.5,7.5c3.2,1.8,6.8,2.7,10.8,2.7c4,0,7.6-0.9,10.8-2.7c3.2-1.8,5.7-4.3,7.5-7.5c1.8-3.2,2.7-6.8,2.7-10.8
		c0-4-0.9-7.6-2.8-10.8c-1.8-3.2-4.3-5.7-7.5-7.6C66.2,26.9,62.7,26,58.7,26"/>
	<path class="st1" d="M58.7,31.3c2.9,0,5.5,0.7,7.9,2c2.3,1.4,4.1,3.2,5.4,5.6c1.3,2.4,2,5.1,2,8.1c0,3-0.7,5.7-2,8
		c-1.3,2.4-3.1,4.3-5.4,5.6c-2.3,1.4-4.9,2-7.9,2c-2.9,0-5.5-0.7-7.8-2c-2.3-1.4-4.2-3.2-5.5-5.6c-1.3-2.4-2-5.1-2-8
		c0-3,0.7-5.7,2-8.1c1.3-2.4,3.2-4.3,5.5-5.6C53.2,32,55.8,31.3,58.7,31.3"/>
	<path class="st0" d="M163.4,26c-1.4,0-2.3,0.7-2.9,2.2l-9.8,29.9l-8.9-29.8c-0.2-0.7-0.6-1.3-1-1.7c-0.5-0.4-1.1-0.6-1.9-0.6
		c-0.8,0-1.4,0.2-1.9,0.6c-0.5,0.4-0.8,1-1,1.7l-9.1,30l-9.9-30c-0.5-1.5-1.5-2.2-2.9-2.2c-1.6,0-2.5,0.8-2.5,2.5
		c0,0.5,0.1,1,0.2,1.6l12,36.1c0.3,0.6,0.6,1,1.1,1.4c0.5,0.4,1.1,0.5,1.7,0.5c0.6,0,1.2-0.2,1.7-0.5c0.5-0.3,0.9-0.8,1.1-1.4
		l9.2-30.7l9.2,30.7c0.2,0.6,0.5,1,1,1.4c0.5,0.4,1.1,0.5,1.8,0.5c0.7,0,1.2-0.2,1.7-0.5c0.5-0.4,0.8-0.8,1-1.4l12-36.1
		c0.2-0.5,0.3-1,0.3-1.6c0-0.8-0.2-1.4-0.7-1.8C164.9,26.2,164.2,26,163.4,26"/>
	<path class="st0" d="M189.2,62.8c-2.9,0-5.5-0.7-7.8-2c-2.3-1.4-4.2-3.2-5.5-5.6c-1.3-2.4-2-5.1-2-8c0-3,0.7-5.7,2-8
		c1.3-2.4,3.2-4.3,5.5-5.7c2.3-1.4,4.9-2.1,7.8-2.1c2.9,0,5.5,0.7,7.8,2.1c2.3,1.4,4.1,3.3,5.5,5.7c1.3,2.4,2,5.1,2,8
		c0,3-0.7,5.7-2,8c-1.3,2.4-3.2,4.3-5.5,5.6C194.6,62.1,192,62.8,189.2,62.8 M189.2,26c-3.9,0-7.5,0.9-10.7,2.8
		c-3.2,1.8-5.7,4.4-7.6,7.6c-1.8,3.2-2.8,6.8-2.8,10.7c0,3.9,0.9,7.5,2.7,10.7c1.8,3.2,4.2,5.7,7.3,7.5c3.1,1.8,6.6,2.8,10.4,2.8
		c3.3,0,6.3-0.7,9-2.1c2.7-1.4,5-3.3,6.7-5.7v4.5c0,0.9,0.3,1.5,0.8,2.1c0.6,0.5,1.3,0.8,2.1,0.8c0.9,0,1.6-0.3,2.1-0.8
		c0.6-0.6,0.8-1.2,0.8-2V47.1c0-3.9-0.9-7.5-2.8-10.7c-1.8-3.2-4.4-5.8-7.6-7.6C196.6,26.9,193.1,26,189.2,26"/>
	<path class="st0" d="M250.1,26.2c-0.4-0.2-0.8-0.3-1.2-0.3c-0.6,0-1.1,0.1-1.5,0.4c-0.5,0.3-0.8,0.7-1,1.2l-14.6,32l-14.8-32
		c-0.2-0.5-0.5-0.9-1-1.2c-0.4-0.3-0.9-0.4-1.4-0.4c-0.5,0-0.9,0.1-1.2,0.3c-1.1,0.6-1.7,1.4-1.7,2.5c0,0.4,0.1,0.8,0.2,1.1
		l17.1,36.3c0.6,1.3,1.5,2,2.8,2c1.3,0,2.3-0.7,2.9-2l16.9-36.4c0.2-0.4,0.2-0.8,0.2-1.1C251.7,27.5,251.2,26.7,250.1,26.2"/>
	<path class="st0" d="M272.5,31.2c3.8,0,6.9,1.2,9.3,3.5c2.4,2.4,3.8,5.5,4.2,9.4h-27.6c0.6-3.9,2.1-7,4.6-9.4
		C265.5,32.4,268.7,31.2,272.5,31.2 M272.5,26c-3.8,0-7.2,0.9-10.2,2.7c-3,1.8-5.3,4.3-7,7.5c-1.7,3.2-2.5,6.8-2.5,10.9
		c0,4,0.9,7.6,2.7,10.8c1.8,3.2,4.3,5.7,7.4,7.5c3.2,1.8,6.8,2.7,10.8,2.7c2.4,0,4.8-0.5,7.4-1.4c2.6-0.9,4.7-2.1,6.3-3.5
		c0.6-0.5,0.8-1.1,0.8-1.7c0-0.8-0.3-1.4-1-2c-0.6-0.4-1.1-0.6-1.7-0.6c-0.7,0-1.4,0.3-2,0.8c-1.1,1-2.6,1.8-4.4,2.4
		c-1.8,0.6-3.7,0.9-5.5,0.9c-4.2,0-7.8-1.3-10.6-3.9c-2.8-2.6-4.4-5.9-4.8-10h30.5c0.8,0,1.5-0.2,2-0.7c0.5-0.5,0.8-1.1,0.8-1.9
		c0-3.9-0.8-7.4-2.4-10.5c-1.6-3.1-3.8-5.5-6.7-7.2C279.6,26.9,276.3,26,272.5,26"/>
	<path class="st0" d="M297,26.2h-4.8c-0.1,0-0.3,0-0.4,0.1c-0.1,0.1-0.1,0.2-0.1,0.3c0,0.1,0,0.2,0.1,0.3c0.1,0.1,0.2,0.1,0.4,0.1
		h1.9v5c0,0.1,0.1,0.3,0.2,0.4c0.1,0.1,0.2,0.2,0.4,0.2c0.2,0,0.3-0.1,0.4-0.2c0.1-0.1,0.2-0.2,0.2-0.4v-5h1.8c0.1,0,0.3,0,0.4-0.1
		c0.1-0.1,0.2-0.2,0.2-0.3c0-0.1-0.1-0.2-0.2-0.3C297.3,26.2,297.1,26.2,297,26.2 M304.5,26.5l-2.5,4.4l-2.5-4.4
		c-0.1-0.2-0.3-0.3-0.5-0.3c-0.2,0-0.3,0-0.4,0.1c-0.1,0.1-0.2,0.2-0.2,0.4v5.4c0,0.1,0.1,0.3,0.2,0.4c0.1,0.1,0.2,0.2,0.4,0.2
		c0.2,0,0.3-0.1,0.4-0.2c0.1-0.1,0.2-0.2,0.2-0.4v-3.7l2,3.5c0.1,0.1,0.1,0.2,0.2,0.2c0.1,0.1,0.2,0.1,0.3,0.1
		c0.2,0,0.4-0.1,0.5-0.3l2-3.6v3.8c0,0.1,0.1,0.3,0.2,0.4c0.1,0.1,0.2,0.2,0.4,0.2c0.1,0,0.3-0.1,0.4-0.2c0.1-0.1,0.2-0.2,0.2-0.4
		v-5.4c0-0.1-0.1-0.3-0.2-0.4c-0.1-0.1-0.3-0.1-0.4-0.1C304.8,26.2,304.6,26.3,304.5,26.5"/>
</g>
</svg>
